<?xml version="1.0" encoding="utf-8"?>
<!-- Generator: Adobe Illustrator 18.1.1, SVG Export Plug-In . SVG Version: 6.00 Build 0)  -->
<!DOCTYPE svg PUBLIC "-//W3C//DTD SVG 1.1//EN" "http://www.w3.org/Graphics/SVG/1.1/DTD/svg11.dtd">
<svg version="1.1" id="Layer_1" xmlns="http://www.w3.org/2000/svg" xmlns:xlink="http://www.w3.org/1999/xlink" x="0px" y="0px"
	 width="120.8px" height="213.7px" viewBox="0 0 120.8 213.7" style="enable-background:new 0 0 120.8 213.7;" xml:space="preserve"
	>
<style type="text/css">
	.st0{fill:#CC0000;}
</style>
<g>
	<rect x="78.9" y="28.6" class="st0" width="9.3" height="9.3"/>
	<rect x="60.4" y="19.2" class="st0" width="9.3" height="9.3"/>
	<rect x="69.7" y="47.3" class="st0" width="0" height="0"/>
	<rect x="69.7" y="56.4" class="st0" width="0" height="0.1"/>
	<path class="st0" d="M79,56.6L79,56.6L79,56.6l0-9.3h-9.3v0h0v0h0V38h-9.3v18.4h0v0.1h0v-0.1h-9.2v0h0v9.2h0v0h18.5v0.1h0v9.2h0v0
		h0v0H51.2v9.2H32.5l0,43.1l27.9,68.3l27.8-68.3v-43h0V56.6H79z M66,170.3H54.8L39,131.8h42.7L66,170.3z"/>
	<rect x="60.4" y="56.4" class="st0" width="0" height="0.1"/>
	<rect x="60.4" y="56.4" class="st0" width="0" height="0.1"/>
	<rect x="69.7" y="47.3" class="st0" width="0" height="0"/>
	<rect x="51.2" y="56.4" class="st0" width="0" height="0"/>
	<rect x="51.2" y="65.7" class="st0" width="0" height="0"/>
	<rect x="60.4" y="56.4" class="st0" width="0" height="0.1"/>
	<rect x="69.7" y="47.3" class="st0" width="0" height="0"/>
	<rect x="41.9" y="28.6" class="st0" width="9.3" height="9.3"/>
	<rect x="41.9" y="65.7" class="st0" width="9.3" height="9.3"/>
	<rect x="41.9" y="47.2" class="st0" width="9.3" height="9.3"/>
	<rect x="32.6" y="56.4" class="st0" width="9.3" height="9.3"/>
</g>
<g>
</g>
<g>
</g>
<g>
</g>
<g>
</g>
<g>
</g>
<g>
</g>
</svg>
